<svg xmlns="http://www.w3.org/2000/svg" viewBox="0 0 288 100" width="80">
  <g class="star">
    <path d="M52.8 32.6L56 8.1l19.3 18.8" fill="#009b7c"></path>
    <path d="M57.4 59.8l3.5-20.6 61.5-15.4-47.1 31.7 20.6 36.1" fill="#007ac2"></path>
    <path d="M37 50.4L7.6 31.1l44.3 9-1.9 15-33.6 38.1" fill="#ef3e42"></path>
    <path d="M28 84.3l29.3-18.6 39.5 32.1-40.7-20.1" fill="#ffd520"></path>
  </g>
  <path d="M118.9 66.6c-1.9 4.6-3.8 9.1-5.7 13.7-.4.8-.6 1.7-.8 2.6-.4 2 0 3.8 1.6 5.3.2.2.6.4.6.9h-14.1c4.4-3.9 5.8-9 7.8-13.9 5.2-12.9 10.3-25.9 15.4-38.9.1-.3.2-.5.3-.8.8-2.5 1.4-5-1.6-7.2h14.1c.5.4.6 1.1.8 1.7l18 47.7c1.5 4.1 3.6 7.9 7 10.7.1.1.3.2.2.6h-17c.2-.8.9-1.2 1.3-1.7.9-1.1 1.3-2.3.8-3.8-1.3-4-2.9-7.9-4.4-11.8-.6-1.7-1.3-3.4-2-5.2-7.4.1-14.8.1-22.3.1zm19.9-6.5c-2.8-7.6-5.5-15-8.2-22.5h-.4c-3 7.4-5.9 14.9-9 22.5h17.6zm66.3-30.9V39c-.9-.4-1.6-.7-2.3-1-3.9-1.9-7.9-3.1-12.3-3.2-11.5-.3-20 6.6-22.1 16.7-1.3 6.4-.9 12.8 1.9 18.9 4.1 8.9 13.2 13.5 22.8 12.5 5.5-.6 10.4-2.7 15.2-5.2.5-.3.9-.7 1.8-.6-1.4 3.6-2.8 7.1-4.3 10.7-3.1 1.2-6.3 2-9.5 2.5-8.2 1.2-16.1 0-23.5-3.9-8.7-4.6-13.8-12-15.3-21.6-2.1-13 2.4-23.6 12.8-31.6 4.9-3.8 10.7-5.7 16.9-6.2 5.5-.5 10.9.2 16.2 1.7.6 0 1.1.1 1.7.5zm54.2 0V39c-.9-.4-1.6-.7-2.3-1-3.9-1.9-7.9-3.1-12.3-3.2-11.5-.3-20 6.6-22.1 16.7-1.3 6.4-.9 12.8 1.9 18.9 4.1 8.9 13.2 13.5 22.8 12.5 5.5-.6 10.4-2.7 15.2-5.2.5-.3.9-.7 1.8-.6-1.4 3.6-2.8 7.1-4.3 10.7-3.1 1.2-6.3 2-9.5 2.5-8.2 1.2-16.1 0-23.5-3.9-8.7-4.6-13.8-12-15.3-21.6-2.1-13 2.4-23.6 12.8-31.6 4.9-3.8 10.7-5.7 16.9-6.2 5.5-.5 10.9.2 16.2 1.7.6 0 1.1.1 1.7.5z" fill="#fff"></path>
</svg>